# xmcd CD database file
#
# Track frame offsets:
#	150
#	9800
#	20275
#	35900
#	55135
#	70437
#	81840
#	97155
#	117560
#	133165
#	151347
#
# Disc length: 2240 seconds
#
# Revision: 0
# Processed by: cddbd v1.5.1PL0 Copyright (c) Steve Scherf et al.
# Submitted via: CDex 1.51
#
DISCID=9308be0b
DTITLE=Hosea Hargrove - I Love My Life
DYEAR=1998
DGENRE=Blues
TTITLE0=If You Love Me Like You Say
TTITLE1=I Love My Life
TTITLE2=Hoochie Coochie Man
TTITLE3=Southern Country Boy
TTITLE4=Things I Used To Do
TTITLE5=Hawaii
TTITLE6=I Stood By
TTITLE7=I Wonder Why
TTITLE8=Big Gun
TTITLE9=I'M A King Bee
TTITLE10=Caress Me Baby
EXTD=YEAR: 1998
EXTT0=
EXTT1=
EXTT2=
EXTT3=
EXTT4=
EXTT5=
EXTT6=
EXTT7=
EXTT8=
EXTT9=
EXTT10=
PLAYORDER=
